# Blender v2.82 (sub 7) OBJ File: 'tech-platforms.blend'
# www.blender.org
mtllib largecube.mtl
o largecube_Cube
v -4.411644 -5.000000 4.411644
v -4.411644 -4.411644 5.000000
v -5.000000 -4.411644 4.411644
v -4.411644 -4.955214 4.636798
v -4.411644 -4.827674 4.827674
v -4.636798 -4.955214 4.411644
v -4.642441 -4.901163 4.642441
v -4.630731 -4.797755 4.797755
v -4.751331 -4.751331 4.751331
v -4.636798 -4.411644 4.955214
v -4.827674 -4.411644 4.827674
v -4.411644 -4.636798 4.955214
v -4.642441 -4.642441 4.901163
v -4.797755 -4.630731 4.797755
v -4.955214 -4.636798 4.411644
v -4.827674 -4.827674 4.411644
v -4.955214 -4.411644 4.636798
v -4.901163 -4.642441 4.642441
v -4.797755 -4.797755 4.630731
v -4.411644 4.411644 5.000000
v -4.411644 5.000000 4.411644
v -5.000000 4.411644 4.411644
v -4.411644 4.636798 4.955214
v -4.411644 4.827674 4.827674
v -4.636798 4.411644 4.955214
v -4.642441 4.642441 4.901163
v -4.630731 4.797755 4.797755
v -4.751331 4.751331 4.751331
v -4.636798 4.955214 4.411644
v -4.827674 4.827674 4.411644
v -4.411644 4.955214 4.636798
v -4.642441 4.901163 4.642441
v -4.797755 4.797755 4.630731
v -4.955214 4.411644 4.636798
v -4.827674 4.411644 4.827674
v -4.955214 4.636798 4.411644
v -4.901163 4.642441 4.642441
v -4.797755 4.630731 4.797755
v -4.411644 -5.000000 -4.411644
v -5.000000 -4.411644 -4.411644
v -4.411644 -4.411644 -5.000000
v -4.636798 -4.955214 -4.411644
v -4.827674 -4.827674 -4.411644
v -4.411644 -4.955214 -4.636798
v -4.642441 -4.901163 -4.642441
v -4.797755 -4.797755 -4.630731
v -4.751331 -4.751331 -4.751331
v -4.955214 -4.411644 -4.636798
v -4.827674 -4.411644 -4.827674
v -4.955214 -4.636798 -4.411644
v -4.901163 -4.642441 -4.642441
v -4.797755 -4.630731 -4.797755
v -4.411644 -4.636798 -4.955214
v -4.411644 -4.827674 -4.827674
v -4.636798 -4.411644 -4.955214
v -4.642441 -4.642441 -4.901163
v -4.630731 -4.797755 -4.797755
v -4.411644 5.000000 -4.411644
v -4.411644 4.411644 -5.000000
v -5.000000 4.411644 -4.411644
v -4.411644 4.955214 -4.636798
v -4.411644 4.827674 -4.827674
v -4.636798 4.955214 -4.411644
v -4.642441 4.901163 -4.642441
v -4.630731 4.797755 -4.797755
v -4.751331 4.751331 -4.751331
v -4.636798 4.411644 -4.955214
v -4.827674 4.411644 -4.827674
v -4.411644 4.636798 -4.955214
v -4.642441 4.642441 -4.901163
v -4.797755 4.630731 -4.797755
v -4.955214 4.636798 -4.411644
v -4.827674 4.827674 -4.411644
v -4.955214 4.411644 -4.636798
v -4.901163 4.642441 -4.642441
v -4.797755 4.797755 -4.630731
v 4.411644 -5.000000 4.411644
v 5.000000 -4.411644 4.411644
v 4.411644 -4.411644 5.000000
v 4.636798 -4.955214 4.411644
v 4.827674 -4.827674 4.411644
v 4.411644 -4.955214 4.636798
v 4.642441 -4.901163 4.642441
v 4.797755 -4.797755 4.630731
v 4.751331 -4.751331 4.751331
v 4.955214 -4.411644 4.636798
v 4.827674 -4.411644 4.827674
v 4.955214 -4.636798 4.411644
v 4.901163 -4.642441 4.642441
v 4.797755 -4.630731 4.797755
v 4.411644 -4.636798 4.955214
v 4.411644 -4.827674 4.827674
v 4.636798 -4.411644 4.955214
v 4.642441 -4.642441 4.901163
v 4.630731 -4.797755 4.797755
v 4.411644 5.000000 4.411644
v 4.411644 4.411644 5.000000
v 5.000000 4.411644 4.411644
v 4.411644 4.955214 4.636798
v 4.411644 4.827674 4.827674
v 4.636798 4.955214 4.411644
v 4.642441 4.901163 4.642441
v 4.630731 4.797755 4.797755
v 4.751331 4.751331 4.751331
v 4.636798 4.411644 4.955214
v 4.827674 4.411644 4.827674
v 4.411644 4.636798 4.955214
v 4.642441 4.642441 4.901163
v 4.797755 4.630731 4.797755
v 4.955214 4.636798 4.411644
v 4.827674 4.827674 4.411644
v 4.955214 4.411644 4.636798
v 4.901163 4.642441 4.642441
v 4.797755 4.797755 4.630731
v 4.411644 -5.000000 -4.411644
v 4.411644 -4.411644 -5.000000
v 5.000000 -4.411644 -4.411644
v 4.411644 -4.955214 -4.636798
v 4.411644 -4.827674 -4.827674
v 4.636798 -4.955214 -4.411644
v 4.642441 -4.901163 -4.642441
v 4.630731 -4.797755 -4.797755
v 4.751331 -4.751331 -4.751331
v 4.636798 -4.411644 -4.955214
v 4.827674 -4.411644 -4.827674
v 4.411644 -4.636798 -4.955214
v 4.642441 -4.642441 -4.901163
v 4.797755 -4.630731 -4.797755
v 4.955214 -4.636798 -4.411644
v 4.827674 -4.827674 -4.411644
v 4.955214 -4.411644 -4.636798
v 4.901163 -4.642441 -4.642441
v 4.797755 -4.797755 -4.630731
v 4.411644 5.000000 -4.411644
v 5.000000 4.411644 -4.411644
v 4.411644 4.411644 -5.000000
v 4.636798 4.955214 -4.411644
v 4.827674 4.827674 -4.411644
v 4.411644 4.955214 -4.636798
v 4.642441 4.901163 -4.642441
v 4.797755 4.797755 -4.630731
v 4.751331 4.751331 -4.751331
v 4.955214 4.411644 -4.636798
v 4.827674 4.411644 -4.827674
v 4.955214 4.636798 -4.411644
v 4.901163 4.642441 -4.642441
v 4.797755 4.630731 -4.797755
v 4.411644 4.636798 -4.955214
v 4.411644 4.827674 -4.827674
v 4.636798 4.411644 -4.955214
v 4.642441 4.642441 -4.901163
v 4.630731 4.797755 -4.797755
vt 0.650192 0.971802
vt 0.353395 0.971802
vt 0.353395 0.528198
vt 0.650192 0.528198
vt 0.650192 0.028198
vt 0.650192 0.471802
vt 0.353395 0.471802
vt 0.353395 0.028198
vt 0.980489 0.971802
vt 0.686875 0.971802
vt 0.686875 0.528198
vt 0.980489 0.528198
vt 0.315663 0.528198
vt 0.315663 0.971802
vt 0.018866 0.971802
vt 0.018866 0.528198
vt 0.315663 0.471802
vt 0.018866 0.471802
vt 0.018866 0.028198
vt 0.315663 0.028198
vt 0.982183 0.028198
vt 0.981963 0.016878
vt 0.989377 0.016594
vt 0.989455 0.028198
vt 0.981336 0.007282
vt 0.988480 0.008786
vt 0.994038 0.017183
vt 0.995180 0.028198
vt 0.992265 0.011120
vt 0.650192 0.516878
vt 0.657956 0.516594
vt 0.657766 0.528198
vt 0.650192 0.507282
vt 0.657562 0.508786
vt 0.663180 0.517183
vt 0.664186 0.528198
vt 0.661618 0.511120
vt 0.315663 0.516878
vt 0.323426 0.516594
vt 0.323237 0.528198
vt 0.315663 0.507282
vt 0.323032 0.508786
vt 0.328651 0.517183
vt 0.329657 0.528198
vt 0.327089 0.511120
vt 0.345822 0.528198
vt 0.345632 0.516595
vt 0.353395 0.516878
vt 0.339401 0.528198
vt 0.340407 0.517183
vt 0.346026 0.508786
vt 0.353395 0.507282
vt 0.341969 0.511120
vt 0.679603 0.528198
vt 0.679681 0.516594
vt 0.687095 0.516878
vt 0.673878 0.528198
vt 0.675020 0.517183
vt 0.680578 0.508786
vt 0.687722 0.507282
vt 0.676793 0.511120
vt 0.323237 0.971802
vt 0.323426 0.983406
vt 0.315663 0.983122
vt 0.329657 0.971802
vt 0.328651 0.982817
vt 0.323033 0.991214
vt 0.315663 0.992718
vt 0.327089 0.988880
vt 0.982183 0.471802
vt 0.989455 0.471802
vt 0.989377 0.483405
vt 0.981963 0.483122
vt 0.995180 0.471802
vt 0.994038 0.482817
vt 0.988480 0.491214
vt 0.981336 0.492718
vt 0.992265 0.488880
vt 0.011292 0.528198
vt 0.011103 0.516595
vt 0.018866 0.516878
vt 0.004872 0.528198
vt 0.005878 0.517183
vt 0.011497 0.508786
vt 0.018866 0.507282
vt 0.007440 0.511120
vt 0.323237 0.471802
vt 0.323426 0.483406
vt 0.315663 0.483122
vt 0.329657 0.471802
vt 0.328651 0.482817
vt 0.323033 0.491214
vt 0.315663 0.492718
vt 0.327089 0.488880
vt 0.687095 0.983122
vt 0.679681 0.983405
vt 0.679603 0.971802
vt 0.687722 0.992718
vt 0.680578 0.991214
vt 0.675020 0.982817
vt 0.673878 0.971802
vt 0.676793 0.988880
vt 0.018866 0.483122
vt 0.011103 0.483406
vt 0.011292 0.471802
vt 0.018866 0.492718
vt 0.011497 0.491214
vt 0.005878 0.482817
vt 0.004872 0.471802
vt 0.007440 0.488880
vt 0.018866 0.983122
vt 0.011103 0.983406
vt 0.011292 0.971802
vt 0.018866 0.992718
vt 0.011497 0.991214
vt 0.005878 0.982817
vt 0.004872 0.971802
vt 0.007440 0.988880
vt 0.688569 0.028198
vt 0.680856 0.028198
vt 0.680403 0.016595
vt 0.688349 0.016878
vt 0.673878 0.028198
vt 0.674726 0.017183
vt 0.680285 0.008786
vt 0.687722 0.007282
vt 0.676043 0.011120
vt 0.345822 0.028198
vt 0.345632 0.016594
vt 0.353395 0.016878
vt 0.339401 0.028198
vt 0.340407 0.017183
vt 0.346026 0.008786
vt 0.353395 0.007282
vt 0.341969 0.011120
vt 0.657766 0.971802
vt 0.657956 0.983406
vt 0.650192 0.983122
vt 0.664186 0.971802
vt 0.663180 0.982817
vt 0.657562 0.991214
vt 0.650192 0.992718
vt 0.661618 0.988880
vt 0.980709 0.516878
vt 0.988655 0.516594
vt 0.988202 0.528198
vt 0.981336 0.507281
vt 0.988774 0.508786
vt 0.994332 0.517183
vt 0.995180 0.528198
vt 0.993015 0.511120
vt 0.353395 0.983122
vt 0.345632 0.983406
vt 0.345822 0.971802
vt 0.353395 0.992718
vt 0.346026 0.991214
vt 0.340407 0.982817
vt 0.339401 0.971802
vt 0.341969 0.988880
vt 0.353395 0.483122
vt 0.345632 0.483405
vt 0.345822 0.471802
vt 0.353395 0.492718
vt 0.346026 0.491214
vt 0.340407 0.482817
vt 0.339401 0.471802
vt 0.341969 0.488880
vt 0.688569 0.471802
vt 0.688349 0.483122
vt 0.680403 0.483405
vt 0.680856 0.471802
vt 0.687722 0.492718
vt 0.680285 0.491214
vt 0.674726 0.482817
vt 0.673878 0.471802
vt 0.676043 0.488880
vt 0.315663 0.016878
vt 0.323426 0.016594
vt 0.323237 0.028198
vt 0.315663 0.007282
vt 0.323032 0.008786
vt 0.328651 0.017183
vt 0.329657 0.028198
vt 0.327089 0.011120
vt 0.650192 0.016878
vt 0.657956 0.016594
vt 0.657766 0.028198
vt 0.650192 0.007282
vt 0.657562 0.008786
vt 0.663180 0.017183
vt 0.664186 0.028198
vt 0.661618 0.011120
vt 0.988202 0.971802
vt 0.988655 0.983405
vt 0.980710 0.983122
vt 0.995180 0.971802
vt 0.994332 0.982817
vt 0.988774 0.991214
vt 0.981336 0.992718
vt 0.993015 0.988880
vt 0.657766 0.471802
vt 0.657956 0.483405
vt 0.650192 0.483122
vt 0.664186 0.471802
vt 0.663180 0.482817
vt 0.657562 0.491214
vt 0.650192 0.492718
vt 0.661618 0.488880
vt 0.011292 0.028198
vt 0.011103 0.016595
vt 0.018866 0.016878
vt 0.004872 0.028198
vt 0.005878 0.017183
vt 0.011497 0.008786
vt 0.018866 0.007282
vt 0.007440 0.011120
vn 0.1004 -0.1004 0.9899
vn 0.1004 0.1004 0.9899
vn -0.1004 0.1004 0.9899
vn -0.1004 -0.1004 0.9899
vn 0.9899 -0.1004 -0.1004
vn 0.9899 0.1004 -0.1004
vn 0.9899 0.1004 0.1004
vn 0.9899 -0.1004 0.1004
vn 0.1004 0.9899 -0.1004
vn -0.1004 0.9899 -0.1004
vn -0.1004 0.9899 0.1004
vn 0.1004 0.9899 0.1004
vn -0.9899 -0.1004 0.1004
vn -0.9899 0.1004 0.1004
vn -0.9899 0.1004 -0.1004
vn -0.9899 -0.1004 -0.1004
vn -0.1004 -0.1004 -0.9899
vn -0.1004 0.1004 -0.9899
vn 0.1004 0.1004 -0.9899
vn 0.1004 -0.1004 -0.9899
vn -0.1004 -0.9899 0.1004
vn -0.0981 -0.9201 0.3792
vn -0.3673 -0.8545 0.3673
vn -0.3792 -0.9201 0.0981
vn -0.0919 -0.7041 0.7041
vn -0.3347 -0.6663 0.6663
vn -0.6663 -0.6663 0.3347
vn -0.7041 -0.7041 0.0919
vn -0.5773 -0.5773 0.5773
vn -0.3792 -0.0981 0.9201
vn -0.3673 -0.3673 0.8545
vn -0.0981 -0.3792 0.9201
vn -0.7041 -0.0919 0.7041
vn -0.6663 -0.3347 0.6663
vn -0.9201 -0.3792 0.0981
vn -0.8545 -0.3673 0.3673
vn -0.9201 -0.0981 0.3792
vn -0.0981 0.3792 0.9201
vn -0.3673 0.3673 0.8545
vn -0.3792 0.0981 0.9201
vn -0.0919 0.7041 0.7041
vn -0.3347 0.6663 0.6663
vn -0.6663 0.3347 0.6663
vn -0.7041 0.0919 0.7041
vn -0.5773 0.5773 0.5773
vn -0.3792 0.9201 0.0981
vn -0.3673 0.8545 0.3673
vn -0.0981 0.9201 0.3792
vn -0.7041 0.7041 0.0919
vn -0.6663 0.6663 0.3347
vn -0.9201 0.0981 0.3792
vn -0.8545 0.3673 0.3673
vn -0.9201 0.3792 0.0981
vn -0.1004 -0.9899 -0.1004
vn -0.3792 -0.9201 -0.0981
vn -0.3673 -0.8545 -0.3673
vn -0.0981 -0.9201 -0.3792
vn -0.7041 -0.7041 -0.0919
vn -0.6663 -0.6663 -0.3347
vn -0.3347 -0.6663 -0.6663
vn -0.0919 -0.7041 -0.7041
vn -0.5773 -0.5773 -0.5773
vn -0.9201 -0.0981 -0.3792
vn -0.8545 -0.3673 -0.3673
vn -0.9201 -0.3792 -0.0981
vn -0.7041 -0.0919 -0.7041
vn -0.6663 -0.3347 -0.6663
vn -0.0981 -0.3792 -0.9201
vn -0.3673 -0.3673 -0.8545
vn -0.3792 -0.0981 -0.9201
vn -0.0981 0.9201 -0.3792
vn -0.3673 0.8545 -0.3673
vn -0.3792 0.9201 -0.0981
vn -0.0919 0.7041 -0.7041
vn -0.3347 0.6663 -0.6663
vn -0.6663 0.6663 -0.3347
vn -0.7041 0.7041 -0.0919
vn -0.5773 0.5773 -0.5773
vn -0.3792 0.0981 -0.9201
vn -0.3673 0.3673 -0.8545
vn -0.0981 0.3792 -0.9201
vn -0.7041 0.0919 -0.7041
vn -0.6663 0.3347 -0.6663
vn -0.9201 0.3792 -0.0981
vn -0.8545 0.3673 -0.3673
vn -0.9201 0.0981 -0.3792
vn 0.1004 -0.9899 0.1004
vn 0.3792 -0.9201 0.0981
vn 0.3673 -0.8545 0.3673
vn 0.0981 -0.9201 0.3792
vn 0.7041 -0.7041 0.0919
vn 0.6663 -0.6663 0.3347
vn 0.3347 -0.6663 0.6663
vn 0.0919 -0.7041 0.7041
vn 0.5773 -0.5773 0.5773
vn 0.9201 -0.0981 0.3792
vn 0.8545 -0.3673 0.3673
vn 0.9201 -0.3792 0.0981
vn 0.7041 -0.0919 0.7041
vn 0.6663 -0.3347 0.6663
vn 0.0981 -0.3792 0.9201
vn 0.3673 -0.3673 0.8545
vn 0.3792 -0.0981 0.9201
vn 0.0981 0.9201 0.3792
vn 0.3673 0.8545 0.3673
vn 0.3792 0.9201 0.0981
vn 0.0919 0.7041 0.7041
vn 0.3347 0.6663 0.6663
vn 0.6663 0.6663 0.3347
vn 0.7041 0.7041 0.0919
vn 0.5773 0.5773 0.5773
vn 0.3792 0.0981 0.9201
vn 0.3673 0.3673 0.8545
vn 0.0981 0.3792 0.9201
vn 0.7041 0.0919 0.7041
vn 0.6663 0.3347 0.6663
vn 0.9201 0.3792 0.0981
vn 0.8545 0.3673 0.3673
vn 0.9201 0.0981 0.3792
vn 0.1004 -0.9899 -0.1004
vn 0.0981 -0.9201 -0.3792
vn 0.3673 -0.8545 -0.3673
vn 0.3792 -0.9201 -0.0981
vn 0.0919 -0.7041 -0.7041
vn 0.3347 -0.6663 -0.6663
vn 0.6663 -0.6663 -0.3347
vn 0.7041 -0.7041 -0.0919
vn 0.5773 -0.5773 -0.5773
vn 0.3792 -0.0981 -0.9201
vn 0.3673 -0.3673 -0.8545
vn 0.0981 -0.3792 -0.9201
vn 0.7041 -0.0919 -0.7041
vn 0.6663 -0.3347 -0.6663
vn 0.9201 -0.3792 -0.0981
vn 0.8545 -0.3673 -0.3673
vn 0.9201 -0.0981 -0.3792
vn 0.3792 0.9201 -0.0981
vn 0.3673 0.8545 -0.3673
vn 0.0981 0.9201 -0.3792
vn 0.7041 0.7041 -0.0919
vn 0.6663 0.6663 -0.3347
vn 0.3347 0.6663 -0.6663
vn 0.0919 0.7041 -0.7041
vn 0.5773 0.5773 -0.5773
vn 0.9201 0.0981 -0.3792
vn 0.8545 0.3673 -0.3673
vn 0.9201 0.3792 -0.0981
vn 0.7041 0.0919 -0.7041
vn 0.6663 0.3347 -0.6663
vn 0.0981 0.3792 -0.9201
vn 0.3673 0.3673 -0.8545
vn 0.3792 0.0981 -0.9201
usemtl cubemat
s 1
f 79/1/1 97/2/2 20/3/3 2/4/4
f 117/5/5 135/6/6 98/7/7 78/8/8
f 134/9/9 58/10/10 21/11/11 96/12/12
f 3/13/13 22/14/14 60/15/15 40/16/16
f 41/17/17 59/18/18 136/19/19 116/20/20
f 1/21/21 4/22/22 7/23/23 6/24/24
f 4/22/22 5/25/25 8/26/26 7/23/23
f 6/24/24 7/23/23 19/27/27 16/28/28
f 7/23/23 8/26/26 9/29/29 19/27/27
f 2/4/4 10/30/30 13/31/31 12/32/32
f 10/30/30 11/33/33 14/34/34 13/31/31
f 12/32/32 13/31/31 8/35/26 5/36/25
f 13/31/31 14/34/34 9/37/29 8/35/26
f 3/13/13 15/38/35 18/39/36 17/40/37
f 15/38/35 16/41/28 19/42/27 18/39/36
f 17/40/37 18/39/36 14/43/34 11/44/33
f 18/39/36 19/42/27 9/45/29 14/43/34
f 20/3/3 23/46/38 26/47/39 25/48/40
f 23/46/38 24/49/41 27/50/42 26/47/39
f 25/48/40 26/47/39 38/51/43 35/52/44
f 26/47/39 27/50/42 28/53/45 38/51/43
f 21/11/11 29/54/46 32/55/47 31/56/48
f 29/54/46 30/57/49 33/58/50 32/55/47
f 31/56/48 32/55/47 27/59/42 24/60/41
f 32/55/47 33/58/50 28/61/45 27/59/42
f 22/14/14 34/62/51 37/63/52 36/64/53
f 34/62/51 35/65/44 38/66/43 37/63/52
f 36/64/53 37/63/52 33/67/50 30/68/49
f 37/63/52 38/66/43 28/69/45 33/67/50
f 39/70/54 42/71/55 45/72/56 44/73/57
f 42/71/55 43/74/58 46/75/59 45/72/56
f 44/73/57 45/72/56 57/76/60 54/77/61
f 45/72/56 46/75/59 47/78/62 57/76/60
f 40/16/16 48/79/63 51/80/64 50/81/65
f 48/79/63 49/82/66 52/83/67 51/80/64
f 50/81/65 51/80/64 46/84/59 43/85/58
f 51/80/64 52/83/67 47/86/62 46/84/59
f 41/17/17 53/87/68 56/88/69 55/89/70
f 53/87/68 54/90/61 57/91/60 56/88/69
f 55/89/70 56/88/69 52/92/67 49/93/66
f 56/88/69 57/91/60 47/94/62 52/92/67
f 58/10/10 61/95/71 64/96/72 63/97/73
f 61/95/71 62/98/74 65/99/75 64/96/72
f 63/97/73 64/96/72 76/100/76 73/101/77
f 64/96/72 65/99/75 66/102/78 76/100/76
f 59/18/18 67/103/79 70/104/80 69/105/81
f 67/103/79 68/106/82 71/107/83 70/104/80
f 69/105/81 70/104/80 65/108/75 62/109/74
f 70/104/80 71/107/83 66/110/78 65/108/75
f 60/15/15 72/111/84 75/112/85 74/113/86
f 72/111/84 73/114/77 76/115/76 75/112/85
f 74/113/86 75/112/85 71/116/83 68/117/82
f 75/112/85 76/115/76 66/118/78 71/116/83
f 77/119/87 80/120/88 83/121/89 82/122/90
f 80/120/88 81/123/91 84/124/92 83/121/89
f 82/122/90 83/121/89 95/125/93 92/126/94
f 83/121/89 84/124/92 85/127/95 95/125/93
f 78/8/8 86/128/96 89/129/97 88/130/98
f 86/128/96 87/131/99 90/132/100 89/129/97
f 88/130/98 89/129/97 84/133/92 81/134/91
f 89/129/97 90/132/100 85/135/95 84/133/92
f 79/1/1 91/136/101 94/137/102 93/138/103
f 91/136/101 92/139/94 95/140/93 94/137/102
f 93/138/103 94/137/102 90/141/100 87/142/99
f 94/137/102 95/140/93 85/143/95 90/141/100
f 96/12/12 99/144/104 102/145/105 101/146/106
f 99/144/104 100/147/107 103/148/108 102/145/105
f 101/146/106 102/145/105 114/149/109 111/150/110
f 102/145/105 103/148/108 104/151/111 114/149/109
f 97/2/2 105/152/112 108/153/113 107/154/114
f 105/152/112 106/155/115 109/156/116 108/153/113
f 107/154/114 108/153/113 103/157/108 100/158/107
f 108/153/113 109/156/116 104/159/111 103/157/108
f 98/7/7 110/160/117 113/161/118 112/162/119
f 110/160/117 111/163/110 114/164/109 113/161/118
f 112/162/119 113/161/118 109/165/116 106/166/115
f 113/161/118 114/164/109 104/167/111 109/165/116
f 115/168/120 118/169/121 121/170/122 120/171/123
f 118/169/121 119/172/124 122/173/125 121/170/122
f 120/171/123 121/170/122 133/174/126 130/175/127
f 121/170/122 122/173/125 123/176/128 133/174/126
f 116/20/20 124/177/129 127/178/130 126/179/131
f 124/177/129 125/180/132 128/181/133 127/178/130
f 126/179/131 127/178/130 122/182/125 119/183/124
f 127/178/130 128/181/133 123/184/128 122/182/125
f 117/5/5 129/185/134 132/186/135 131/187/136
f 129/185/134 130/188/127 133/189/126 132/186/135
f 131/187/136 132/186/135 128/190/133 125/191/132
f 132/186/135 133/189/126 123/192/128 128/190/133
f 134/9/9 137/193/137 140/194/138 139/195/139
f 137/193/137 138/196/140 141/197/141 140/194/138
f 139/195/139 140/194/138 152/198/142 149/199/143
f 140/194/138 141/197/141 142/200/144 152/198/142
f 135/6/6 143/201/145 146/202/146 145/203/147
f 143/201/145 144/204/148 147/205/149 146/202/146
f 145/203/147 146/202/146 141/206/141 138/207/140
f 146/202/146 147/205/149 142/208/144 141/206/141
f 136/19/19 148/209/150 151/210/151 150/211/152
f 148/209/150 149/212/143 152/213/142 151/210/151
f 150/211/152 151/210/151 147/214/149 144/215/148
f 151/210/151 152/213/142 142/216/144 147/214/149
f 39/70/54 1/21/21 6/24/24 42/71/55
f 42/71/55 6/24/24 16/28/28 43/74/58
f 43/85/58 16/41/28 15/38/35 50/81/65
f 50/81/65 15/38/35 3/13/13 40/16/16
f 2/4/4 20/3/3 25/48/40 10/30/30
f 10/30/30 25/48/40 35/52/44 11/33/33
f 11/44/33 35/65/44 34/62/51 17/40/37
f 17/40/37 34/62/51 22/14/14 3/13/13
f 21/11/11 58/10/10 63/97/73 29/54/46
f 29/54/46 63/97/73 73/101/77 30/57/49
f 30/68/49 73/114/77 72/111/84 36/64/53
f 36/64/53 72/111/84 60/15/15 22/14/14
f 59/18/18 41/17/17 55/89/70 67/103/79
f 67/103/79 55/89/70 49/93/66 68/106/82
f 68/117/82 49/82/66 48/79/63 74/113/86
f 74/113/86 48/79/63 40/16/16 60/15/15
f 115/168/120 39/70/54 44/73/57 118/169/121
f 118/169/121 44/73/57 54/77/61 119/172/124
f 119/183/124 54/90/61 53/87/68 126/179/131
f 126/179/131 53/87/68 41/17/17 116/20/20
f 58/10/10 134/9/9 139/195/139 61/95/71
f 61/95/71 139/195/139 149/199/143 62/98/74
f 62/109/74 149/212/143 148/209/150 69/105/81
f 69/105/81 148/209/150 136/19/19 59/18/18
f 135/6/6 117/5/5 131/187/136 143/201/145
f 143/201/145 131/187/136 125/191/132 144/204/148
f 144/215/148 125/180/132 124/177/129 150/211/152
f 150/211/152 124/177/129 116/20/20 136/19/19
f 77/119/87 115/168/120 120/171/123 80/120/88
f 80/120/88 120/171/123 130/175/127 81/123/91
f 81/134/91 130/188/127 129/185/134 88/130/98
f 88/130/98 129/185/134 117/5/5 78/8/8
f 134/9/9 96/12/12 101/146/106 137/193/137
f 137/193/137 101/146/106 111/150/110 138/196/140
f 138/207/140 111/163/110 110/160/117 145/203/147
f 145/203/147 110/160/117 98/7/7 135/6/6
f 97/2/2 79/1/1 93/138/103 105/152/112
f 105/152/112 93/138/103 87/142/99 106/155/115
f 106/166/115 87/131/99 86/128/96 112/162/119
f 112/162/119 86/128/96 78/8/8 98/7/7
f 1/21/21 77/119/87 82/122/90 4/22/22
f 4/22/22 82/122/90 92/126/94 5/25/25
f 5/36/25 92/139/94 91/136/101 12/32/32
f 12/32/32 91/136/101 79/1/1 2/4/4
f 96/12/12 21/11/11 31/56/48 99/144/104
f 99/144/104 31/56/48 24/60/41 100/147/107
f 100/158/107 24/49/41 23/46/38 107/154/114
f 107/154/114 23/46/38 20/3/3 97/2/2
f 39/70/54 115/168/120 77/119/87 1/21/21
