# Blender v2.82 (sub 7) OBJ File: 'screw.blend'
# www.blender.org
mtllib screw.mtl
o Cylinder_Cylinder.001
v 0.000000 -0.435072 -0.330862
v 0.000000 0.564928 -0.500000
v 0.195181 -0.435072 -0.267725
v 0.309017 0.564928 -0.404509
v 0.315101 -0.435072 -0.102277
v 0.500000 0.564928 -0.154508
v 0.315129 -0.435072 0.102277
v 0.500000 0.564928 0.154509
v 0.194674 -0.435072 0.267937
v 0.309017 0.564928 0.404509
v -0.000000 -0.435072 0.331288
v -0.000000 0.564928 0.500000
v -0.195003 -0.435072 0.267370
v -0.309017 0.564928 0.404508
v -0.314976 -0.435072 0.102317
v -0.500000 0.564928 0.154509
v -0.314988 -0.435072 -0.102347
v -0.500000 0.564928 -0.154509
v -0.194809 -0.435072 -0.267745
v -0.309017 0.564928 -0.404509
v 0.000000 0.279819 -0.488922
v 0.302170 0.279819 -0.395546
v 0.488922 0.279819 -0.151085
v 0.488922 0.279819 0.151085
v 0.302170 0.279819 0.395546
v -0.000000 0.279819 0.488922
v -0.302170 0.279819 0.395546
v -0.488922 0.279819 0.151085
v -0.488922 0.279819 -0.151085
v -0.302170 0.279819 -0.395546
v 0.195181 0.279209 -0.267725
v 0.315101 0.279209 -0.102277
v 0.315129 0.279209 0.102277
v 0.194674 0.279209 0.267937
v -0.000000 0.279209 0.331288
v -0.195003 0.279209 0.267370
v -0.314976 0.279209 0.102317
v -0.314988 0.279209 -0.102347
v -0.194809 0.279209 -0.267745
v 0.000000 0.279209 -0.330862
v -0.102350 -0.435072 0.314957
v -0.154509 0.564928 0.452254
v -0.151085 0.279819 0.442234
v -0.102350 0.279209 0.314957
v 0.102749 -0.435072 0.315030
v 0.154508 0.564928 0.452254
v 0.151085 0.279819 0.442234
v 0.102749 0.279209 0.315030
v 0.267922 -0.435072 0.194860
v 0.404508 0.564928 0.279509
v 0.395546 0.279819 0.273316
v 0.267922 0.279209 0.194860
v 0.331099 -0.435072 0.000000
v 0.500000 0.564928 0.000000
v 0.488922 0.279819 0.000000
v 0.331099 0.279209 0.000000
v 0.268005 -0.435072 -0.195066
v 0.404509 0.564928 -0.279508
v 0.395546 0.279819 -0.273316
v 0.268005 0.279209 -0.195066
v 0.102376 -0.435072 -0.314919
v 0.154509 0.564928 -0.452254
v 0.151085 0.279819 -0.442234
v 0.102376 0.279209 -0.314919
v -0.102316 -0.435072 -0.314895
v -0.154508 0.564928 -0.452254
v -0.151085 0.279819 -0.442234
v -0.102316 0.279209 -0.314895
v -0.267894 -0.435072 -0.194762
v -0.404508 0.564928 -0.279509
v -0.395546 0.279819 -0.273316
v -0.267894 0.279209 -0.194762
v -0.331300 -0.435072 -0.000000
v -0.500000 0.564928 0.000000
v -0.488922 0.279819 -0.000000
v -0.331300 0.279209 -0.000000
v -0.267805 -0.435072 0.194752
v -0.404509 0.564928 0.279509
v -0.395546 0.279819 0.273316
v -0.267805 0.279209 0.194752
v -0.000000 0.574736 -0.468755
v 0.289706 0.574736 -0.379230
v 0.468755 0.574736 -0.144853
v 0.468755 0.574736 0.144853
v 0.289706 0.574736 0.379231
v -0.000000 0.574736 0.468755
v -0.289706 0.574736 0.379230
v -0.468755 0.574736 0.144853
v -0.468755 0.574736 -0.144853
v -0.289706 0.574736 -0.379231
v -0.144853 0.574736 0.423993
v 0.144853 0.574736 0.423993
v 0.379230 0.574736 0.262042
v 0.468755 0.574736 0.000000
v 0.379231 0.574736 -0.262042
v 0.144853 0.574736 -0.423993
v -0.144853 0.574736 -0.423993
v -0.379230 0.574736 -0.262042
v -0.468755 0.574736 -0.000000
v -0.379231 0.574736 0.262042
v 0.000000 0.292038 -0.500000
v 0.309017 0.292038 -0.404509
v 0.500000 0.292038 -0.154508
v 0.500000 0.292038 0.154509
v 0.309017 0.292038 0.404509
v -0.000000 0.292038 0.500000
v -0.309017 0.292038 0.404508
v -0.500000 0.292038 0.154509
v -0.500000 0.292038 -0.154509
v -0.309017 0.292038 -0.404509
v -0.154509 0.292038 0.452254
v 0.154508 0.292038 0.452254
v 0.404508 0.292038 0.279509
v 0.500000 0.292038 0.000000
v 0.404509 0.292038 -0.279509
v 0.154509 0.292038 -0.452254
v -0.154508 0.292038 -0.452254
v -0.404508 0.292038 -0.279509
v -0.500000 0.292038 -0.000000
v -0.404509 0.292038 0.279509
v 0.393273 0.574736 -0.035096
v -0.393273 0.574736 -0.035096
v 0.393687 0.574736 -0.000064
v -0.393687 0.574736 -0.000064
v 0.394100 0.574736 0.035224
v -0.394100 0.574736 0.035224
v 0.393273 0.513119 -0.035096
v -0.393273 0.513119 -0.035096
v 0.393687 0.513119 -0.000064
v -0.393687 0.513119 -0.000064
v 0.394100 0.513119 0.035224
v -0.394100 0.513119 0.035224
vt 0.112590 0.918788
vt 0.001737 0.918788
vt 0.001737 0.853451
vt 0.112590 0.853451
vt 0.112590 0.794966
vt 0.001737 0.794966
vt 0.001737 0.736481
vt 0.112590 0.736481
vt 0.993299 0.713328
vt 0.882447 0.713328
vt 0.882447 0.662292
vt 0.993299 0.662292
vt 0.993299 0.597701
vt 0.882447 0.597701
vt 0.882447 0.533111
vt 0.993299 0.533111
vt 0.993299 0.479638
vt 0.882447 0.479638
vt 0.882446 0.426166
vt 0.993299 0.426166
vt 0.797306 0.914196
vt 0.686454 0.914196
vt 0.686454 0.852664
vt 0.797306 0.852664
vt 0.797306 0.789811
vt 0.686454 0.789811
vt 0.686454 0.726957
vt 0.797306 0.726957
vt 0.828653 0.056084
vt 0.939505 0.056084
vt 0.939505 0.107095
vt 0.828652 0.107095
vt 0.205488 0.006271
vt 0.267138 0.029209
vt 0.263285 0.040839
vt 0.205488 0.019335
vt 0.828652 0.171686
vt 0.939505 0.171686
vt 0.939505 0.236277
vt 0.828652 0.236277
vt 0.828652 0.289776
vt 0.939505 0.289776
vt 0.939505 0.343276
vt 0.828652 0.343276
vt 0.428109 0.621191
vt 0.414998 0.580759
vt 0.414962 0.538002
vt 0.427829 0.497808
vt 0.452725 0.463274
vt 0.486792 0.438350
vt 0.526755 0.425123
vt 0.568971 0.425133
vt 0.608929 0.438309
vt 0.642928 0.463164
vt 0.667764 0.497728
vt 0.680730 0.538223
vt 0.680595 0.580997
vt 0.667740 0.621176
vt 0.642985 0.655671
vt 0.608963 0.680722
vt 0.568912 0.693837
vt 0.526778 0.693837
vt 0.486884 0.680703
vt 0.452759 0.655651
vt 0.727144 0.287802
vt 0.774289 0.317199
vt 0.737031 0.370101
vt 0.698054 0.318520
vt 0.750969 0.207318
vt 0.811546 0.201130
vt 0.811546 0.264297
vt 0.745374 0.249356
vt 0.723408 0.127953
vt 0.774289 0.088657
vt 0.811546 0.137963
vt 0.743381 0.165419
vt 0.654886 0.080227
vt 0.676748 0.022742
vt 0.737031 0.039352
vt 0.692907 0.098632
vt 0.571834 0.082247
vt 0.556180 0.028562
vt 0.616464 0.006132
vt 0.613478 0.074678
vt 0.505610 0.133355
vt 0.458639 0.103894
vt 0.495896 0.050992
vt 0.534768 0.102434
vt 0.481925 0.213749
vt 0.421381 0.219963
vt 0.421381 0.156795
vt 0.487550 0.171640
vt 0.509584 0.293090
vt 0.458639 0.332435
vt 0.421381 0.283130
vt 0.489518 0.255731
vt 0.578054 0.341018
vt 0.556180 0.398350
vt 0.495896 0.381740
vt 0.539970 0.322479
vt 0.661075 0.338840
vt 0.676748 0.392531
vt 0.616464 0.414960
vt 0.619480 0.346574
vt 0.797306 0.975727
vt 0.686454 0.975728
vt 0.993299 0.764365
vt 0.882447 0.764365
vt 0.112590 0.984126
vt 0.001737 0.984126
vt 0.828652 0.005073
vt 0.939505 0.005073
vt 0.392524 0.224345
vt 0.392524 0.284907
vt 0.089893 0.051184
vt 0.147691 0.035260
vt 0.267138 0.407376
vt 0.205488 0.424362
vt 0.205488 0.411299
vt 0.263285 0.395374
vt 0.143838 0.023258
vt 0.366889 0.106248
vt 0.404991 0.160348
vt 0.392524 0.163783
vt 0.356803 0.113063
vt 0.044087 0.324386
vt 0.005985 0.270286
vt 0.018452 0.266851
vt 0.054173 0.317570
vt 0.366889 0.339968
vt 0.328787 0.390390
vt 0.321082 0.379449
vt 0.356803 0.332178
vt 0.082188 0.040244
vt 0.044087 0.090666
vt 0.054173 0.098456
vt 0.143838 0.401425
vt 0.082188 0.378487
vt 0.089893 0.368290
vt 0.147691 0.389795
vt 0.005985 0.141088
vt 0.018452 0.145727
vt 0.005985 0.205687
vt 0.018452 0.206289
vt 0.328787 0.052147
vt 0.321082 0.062344
vt 0.404991 0.289545
vt 0.404991 0.224947
vt 0.802270 0.852511
vt 0.802270 0.791050
vt 0.739763 0.035473
vt 0.777865 0.085896
vt 0.823689 0.108670
vt 0.823689 0.171830
vt 0.815966 0.265515
vt 0.777865 0.319616
vt 0.117554 0.982026
vt 0.117554 0.918136
vt 0.117553 0.854246
vt 0.117553 0.797057
vt 0.493164 0.385619
vt 0.455063 0.335197
vt 0.998263 0.660719
vt 0.998263 0.597560
vt 0.416961 0.155577
vt 0.455063 0.101477
vt 0.802270 0.972848
vt 0.802270 0.912679
vt 0.739763 0.373716
vt 0.823689 0.234990
vt 0.815966 0.136318
vt 0.802270 0.729589
vt 0.493164 0.047376
vt 0.998263 0.534401
vt 0.416961 0.284775
vt 0.117553 0.739868
vt 0.332555 0.313484
vt 0.341391 0.302072
vt 0.069884 0.128727
vt 0.323783 0.324814
vt 0.606405 0.989307
vt 0.606405 0.702174
vt 0.631435 0.702174
vt 0.631435 0.989307
vt 0.078389 0.117191
vt 0.410253 0.456318
vt 0.398829 0.456318
vt 0.398829 0.431013
vt 0.410253 0.431013
vt 0.657939 0.698247
vt 0.669485 0.698247
vt 0.669485 0.723551
vt 0.657939 0.723551
vt 0.086958 0.105572
vt 0.681114 0.698247
vt 0.681114 0.723551
vt 0.632186 0.951665
vt 0.632186 0.701618
vt 0.657216 0.701618
vt 0.657216 0.951665
vt 0.387488 0.456318
vt 0.387488 0.431013
vt 0.955902 0.005025
vt 0.970236 0.004855
vt 0.970236 0.328545
vt 0.955902 0.328375
vt 0.941671 0.328205
vt 0.941671 0.005195
vt 0.804101 0.425493
vt 0.804101 0.718826
vt 0.761809 0.718826
vt 0.761809 0.425493
vt 0.721942 0.425493
vt 0.721942 0.718826
vt 0.687571 0.718826
vt 0.687571 0.425493
vt 0.191425 0.435034
vt 0.191425 0.728367
vt 0.154153 0.728367
vt 0.154153 0.435034
vt 0.112509 0.435034
vt 0.112509 0.728367
vt 0.070952 0.728367
vt 0.070952 0.435034
vt 0.033378 0.435034
vt 0.033378 0.728367
vt 0.003266 0.728367
vt 0.003266 0.435034
vt 0.450201 0.995600
vt 0.450201 0.702267
vt 0.491574 0.702267
vt 0.491574 0.995600
vt 0.533141 0.995600
vt 0.533141 0.702267
vt 0.571744 0.702267
vt 0.571744 0.995600
vt 0.384774 0.435034
vt 0.384774 0.728367
vt 0.347410 0.728367
vt 0.347410 0.435034
vt 0.305853 0.435034
vt 0.305853 0.728367
vt 0.264362 0.728367
vt 0.264362 0.435034
vt 0.877855 0.425493
vt 0.877855 0.718826
vt 0.843981 0.718826
vt 0.843981 0.425493
vt 0.413816 0.995600
vt 0.413816 0.702267
vt 0.220981 0.435034
vt 0.220981 0.728367
vt 0.226619 0.728367
vt 0.226619 0.435034
vt 0.603189 0.702267
vt 0.603189 0.995600
vn 0.2952 0.0000 -0.9554
vn 0.7947 0.0000 -0.6071
vn 1.0000 0.0000 0.0000
vn 0.7947 0.0000 0.6071
vn 0.2952 -0.0000 0.9554
vn -0.2952 -0.0000 0.9554
vn -0.7947 0.0000 0.6071
vn -1.0000 0.0000 0.0000
vn -0.0922 0.9500 0.2982
vn -0.7947 0.0000 -0.6071
vn -0.2952 0.0000 -0.9554
vn 0.0000 -1.0000 0.0000
vn -0.0010 -1.0000 -0.0041
vn -0.0030 -1.0000 -0.0025
vn -0.0036 -1.0000 -0.0002
vn -0.0032 -1.0000 0.0021
vn -0.0015 -1.0000 0.0039
vn 0.0010 -1.0000 0.0041
vn 0.0030 -1.0000 0.0025
vn 0.0036 -1.0000 0.0002
vn 0.0032 -1.0000 -0.0021
vn 0.0015 -1.0000 -0.0039
vn -0.0010 -1.0000 0.0041
vn 0.0015 -1.0000 0.0039
vn 0.0032 -1.0000 0.0021
vn 0.0036 -1.0000 -0.0002
vn 0.0030 -1.0000 -0.0025
vn 0.0010 -1.0000 -0.0041
vn -0.0015 -1.0000 -0.0039
vn -0.0032 -1.0000 -0.0021
vn -0.0036 -1.0000 0.0002
vn -0.0030 -1.0000 0.0025
vn 0.0000 1.0000 0.0000
vn 0.2419 0.9525 -0.1848
vn -0.2419 0.9525 0.1848
vn 0.0922 0.9500 0.2982
vn -0.0922 0.9500 -0.2982
vn 0.2995 0.9541 0.0000
vn -0.2995 0.9541 0.0000
vn 0.0922 0.9500 -0.2982
vn -0.2419 0.9525 -0.1848
vn 0.2419 0.9525 0.1848
vn -0.5934 -0.6650 0.4534
vn -0.7408 -0.6717 0.0000
vn -0.5934 -0.6651 -0.4534
vn -0.2232 -0.6547 -0.7222
vn 0.2232 -0.6547 -0.7222
vn 0.5934 -0.6650 -0.4534
vn 0.7408 -0.6717 0.0000
vn 0.5934 -0.6651 0.4534
vn 0.2232 -0.6547 0.7222
vn -0.2232 -0.6547 0.7222
vn -0.5934 -0.6651 0.4534
vn 0.5934 -0.6650 0.4534
vn -0.0000 0.0000 -1.0000
vn -0.9999 0.0000 0.0117
vn 0.9999 0.0000 0.0118
vn 0.9999 0.0000 0.0117
vn -0.0000 0.0000 1.0000
vn -0.9999 0.0000 0.0118
vn 0.2273 -0.6733 -0.7035
vn 0.2058 -0.7427 -0.6371
vn 0.3931 -0.7426 -0.5423
vn 0.4339 -0.6735 -0.5984
vn 0.5983 -0.6732 -0.4345
vn 0.5415 -0.7430 -0.3933
vn 0.6371 -0.7428 -0.2058
vn 0.7034 -0.6735 -0.2272
vn 0.7388 -0.6739 -0.0001
vn 0.6702 -0.7422 -0.0001
vn 0.6366 -0.7430 0.2062
vn 0.7034 -0.6733 0.2278
vn 0.5977 -0.6734 0.4349
vn 0.5413 -0.7427 0.3940
vn 0.3941 -0.7422 0.5420
vn 0.4346 -0.6738 0.5975
vn 0.2292 -0.6733 0.7029
vn 0.2075 -0.7428 0.6365
vn -0.0004 -0.7427 0.6696
vn -0.0005 -0.6734 0.7392
vn -0.2300 -0.6733 0.7027
vn -0.2082 -0.7428 0.6363
vn -0.3945 -0.7421 0.5419
vn -0.4348 -0.6740 0.5972
vn -0.5976 -0.6735 0.4350
vn -0.5413 -0.7427 0.3941
vn -0.6367 -0.7427 0.2075
vn -0.7027 -0.6736 0.2290
vn -0.7393 -0.6733 0.0000
vn -0.6693 -0.7430 0.0000
vn -0.6368 -0.7426 -0.2073
vn -0.7028 -0.6736 -0.2287
vn -0.5979 -0.6735 -0.4347
vn -0.5415 -0.7427 -0.3938
vn -0.3935 -0.7425 -0.5420
vn -0.4342 -0.6736 -0.5980
vn -0.2277 -0.6733 -0.7034
vn -0.2062 -0.7428 -0.6369
vn -0.0001 -0.7419 -0.6704
vn -0.0001 -0.6740 -0.7387
usemtl mata
s off
f 116/1/1 62/2/1 4/3/1 102/4/1
f 115/5/2 58/6/2 6/7/2 103/8/2
f 114/9/3 54/10/3 8/11/3 104/12/3
f 113/13/4 50/14/4 10/15/4 105/16/4
f 112/17/5 46/18/5 12/19/5 106/20/5
f 111/21/6 42/22/6 14/23/6 107/24/6
f 120/25/7 78/26/7 16/27/7 108/28/7
f 119/29/8 74/30/8 18/31/8 109/32/8
f 14/33/9 42/34/9 91/35/9 87/36/9
f 118/37/10 70/38/10 20/39/10 110/40/10
f 117/41/11 66/42/11 2/43/11 101/44/11
f 1/45/12 61/46/12 3/47/12 57/48/12 5/49/12 53/50/12 7/51/12 49/52/12 9/53/12 45/54/12 11/55/12 41/56/12 13/57/12 77/58/12 15/59/12 73/60/12 17/61/12 69/62/12 19/63/12 65/64/12
f 68/65/13 67/66/13 21/67/13 40/68/13
f 72/69/14 71/70/14 30/71/14 39/72/14
f 76/73/15 75/74/15 29/75/15 38/76/15
f 80/77/16 79/78/16 28/79/16 37/80/16
f 44/81/17 43/82/17 27/83/17 36/84/17
f 48/85/18 47/86/18 26/87/18 35/88/18
f 52/89/19 51/90/19 25/91/19 34/92/19
f 56/93/20 55/94/20 24/95/20 33/96/20
f 60/97/21 59/98/21 23/99/21 32/100/21
f 64/101/22 63/102/22 22/103/22 31/104/22
f 35/88/23 26/87/23 43/82/23 44/81/23
f 106/105/6 12/106/6 42/22/6 111/21/6
f 34/92/24 25/91/24 47/86/24 48/85/24
f 105/16/5 10/15/5 46/18/5 112/17/5
f 33/96/25 24/95/25 51/90/25 52/89/25
f 104/12/4 8/11/4 50/14/4 113/13/4
f 32/100/26 23/99/26 55/94/26 56/93/26
f 103/107/3 6/108/3 54/10/3 114/9/3
f 31/104/27 22/103/27 59/98/27 60/97/27
f 102/4/2 4/3/2 58/6/2 115/5/2
f 40/68/28 21/67/28 63/102/28 64/101/28
f 101/109/1 2/110/1 62/2/1 116/1/1
f 39/72/29 30/71/29 67/66/29 68/65/29
f 110/40/11 20/39/11 66/42/11 117/41/11
f 38/76/30 29/75/30 71/70/30 72/69/30
f 109/32/10 18/31/10 70/38/10 118/37/10
f 37/80/31 28/79/31 75/74/31 76/73/31
f 108/111/8 16/112/8 74/30/8 119/29/8
f 36/84/32 27/83/32 79/78/32 80/77/32
f 107/24/7 14/23/7 78/26/7 120/25/7
f 93/113/33 84/114/33 88/115/33 100/116/33
f 58/117/34 4/118/34 82/119/34 95/120/34
f 78/121/35 14/33/35 87/36/35 100/116/35
f 46/122/36 10/123/36 85/124/36 92/125/36
f 66/126/37 20/127/37 90/128/37 97/129/37
f 54/130/38 6/131/38 83/132/38 94/133/38
f 16/134/35 78/121/35 100/116/35 88/115/35
f 74/135/39 16/134/39 88/115/39 99/136/39
f 62/137/40 2/138/40 81/139/40 96/140/40
f 18/141/39 74/135/39 99/136/39 89/142/39
f 20/127/41 70/143/41 98/144/41 90/128/41
f 2/138/37 66/126/37 97/129/37 81/139/37
f 42/34/9 12/145/9 86/146/9 91/35/9
f 4/118/40 62/137/40 96/140/40 82/119/40
f 6/131/34 58/117/34 95/120/34 83/132/34
f 8/147/38 54/130/38 94/133/38 84/114/38
f 50/148/42 8/147/42 84/114/42 93/113/42
f 10/123/42 50/148/42 93/113/42 85/124/42
f 70/143/41 18/141/41 89/142/41 98/144/41
f 12/145/36 46/122/36 92/125/36 86/146/36
f 27/149/43 107/24/43 120/25/43 79/150/43
f 28/79/44 108/151/44 119/152/44 75/74/44
f 29/153/45 109/32/45 118/37/45 71/154/45
f 30/71/46 110/155/46 117/156/46 67/66/46
f 21/157/47 101/109/47 116/1/47 63/158/47
f 22/159/48 102/4/48 115/5/48 59/160/48
f 23/99/49 103/161/49 114/162/49 55/94/49
f 24/163/50 104/12/50 113/13/50 51/164/50
f 25/91/51 105/165/51 112/166/51 47/86/51
f 26/167/52 106/105/52 111/21/52 43/168/52
f 67/66/46 117/156/46 101/169/46 21/67/46
f 71/154/45 118/37/45 110/40/45 30/170/45
f 75/74/44 119/152/44 109/171/44 29/75/44
f 79/150/53 120/25/53 108/28/53 28/172/53
f 43/168/52 111/21/52 107/24/52 27/149/52
f 47/86/51 112/166/51 106/173/51 26/87/51
f 51/164/54 113/13/54 105/16/54 25/174/54
f 55/94/49 114/162/49 104/175/49 24/95/49
f 59/160/48 115/5/48 103/8/48 23/176/48
f 63/158/47 116/1/47 102/4/47 22/159/47
f 84/114/33 94/133/33 123/177/33 125/178/33
f 83/132/33 89/142/33 122/179/33 121/180/33
f 100/116/33 87/36/33 85/124/33 93/113/33
f 92/125/33 85/124/33 87/36/33 91/35/33
f 91/35/33 86/146/33 92/125/33
f 98/144/33 89/142/33 83/132/33 95/120/33
f 95/120/33 82/119/33 90/128/33 98/144/33
f 97/129/33 90/128/33 82/119/33 96/140/33
f 96/140/33 81/139/33 97/129/33
f 126/181/55 125/182/55 131/183/55 132/184/55
f 94/133/33 83/132/33 121/180/33 123/177/33
f 89/142/33 99/136/33 124/185/33 122/179/33
f 125/186/56 123/187/56 129/188/56 131/189/56
f 122/190/57 124/191/57 130/192/57 128/193/57
f 99/136/33 88/115/33 126/194/33 124/185/33
f 124/191/58 126/195/58 132/196/58 130/192/58
f 88/115/33 84/114/33 125/178/33 126/194/33
f 121/197/59 122/198/59 128/199/59 127/200/59
f 123/187/60 121/201/60 127/202/60 129/188/60
f 130/203/33 132/204/33 131/205/33 129/206/33
f 127/207/33 128/208/33 130/203/33 129/206/33
s 1
f 61/209/61 64/210/62 31/211/63 3/212/64
f 57/213/65 60/214/66 32/215/67 5/216/68
f 53/217/69 56/218/70 33/219/71 7/220/72
f 49/221/73 52/222/74 34/223/75 9/224/76
f 45/225/77 48/226/78 35/227/79 11/228/80
f 41/229/81 44/230/82 36/231/83 13/232/84
f 77/233/85 80/234/86 37/235/87 15/236/88
f 73/237/89 76/238/90 38/239/91 17/240/92
f 69/241/93 72/242/94 39/243/95 19/244/96
f 65/245/97 68/246/98 40/247/99 1/248/100
f 11/249/80 35/250/79 44/230/82 41/229/81
f 9/224/76 34/223/75 48/226/78 45/225/77
f 7/220/72 33/219/71 52/222/74 49/221/73
f 5/251/68 32/252/67 56/218/70 53/217/69
f 3/212/64 31/211/63 60/214/66 57/213/65
f 1/248/100 40/247/99 64/210/62 61/209/61
f 19/244/96 39/243/95 68/253/98 65/254/97
f 17/240/92 38/239/91 72/242/94 69/241/93
f 15/236/88 37/235/87 76/255/90 73/256/89
f 13/232/84 36/231/83 80/234/86 77/233/85
