# Blender v2.82 (sub 7) OBJ File: 'lava_planet.blend'
# www.blender.org
mtllib smalldirtplanet.mtl
o smalldirtplanet_Icosphere.001
v 0.000000 -2.000000 0.000000
v 1.447215 -0.894439 1.051451
v -0.552776 -0.894440 1.701298
v -1.788852 -0.894431 0.000000
v -0.552776 -0.894440 -1.701298
v 1.447215 -0.894439 -1.051451
v 0.552776 0.894440 1.701298
v -1.447215 0.894439 1.051451
v -1.447215 0.894439 -1.051451
v 0.552776 0.894440 -1.701298
v 1.788852 0.894431 0.000000
v 0.000000 2.000000 0.000000
v -0.465643 -1.315038 1.433126
v -0.324911 -1.701309 0.999990
v -0.155213 -1.935899 0.477705
v 0.406362 -1.935899 0.295236
v 0.850645 -1.701308 0.618023
v 1.219093 -1.315038 0.885713
v 1.063882 -1.004603 1.363425
v 0.525738 -1.051475 1.618023
v -0.059279 -1.004604 1.728368
v 1.625458 -1.004601 -0.590475
v 1.701296 -1.051472 0.000000
v 1.625458 -1.004601 0.590475
v 0.406362 -1.935899 -0.295236
v 0.850645 -1.701308 -0.618023
v 1.219093 -1.315038 -0.885713
v -1.506883 -1.315030 0.000000
v -1.051460 -1.701303 0.000000
v -0.502294 -1.935898 0.000000
v -0.967943 -1.004603 1.433129
v -1.376379 -1.051472 0.999994
v -1.662101 -1.004597 0.477707
v -0.465643 -1.315038 -1.433126
v -0.324911 -1.701309 -0.999990
v -0.155213 -1.935899 -0.477705
v -1.662101 -1.004597 -0.477707
v -1.376379 -1.051472 -0.999994
v -0.967943 -1.004603 -1.433129
v -0.059279 -1.004604 -1.728368
v 0.525738 -1.051475 -1.618023
v 1.063882 -1.004603 -1.363425
v 1.913252 0.502299 0.295237
v 1.902116 -0.000000 0.618025
v 1.721395 -0.502302 0.885715
v 1.721395 -0.502302 -0.885715
v 1.902116 0.000000 -0.618025
v 1.913252 0.502299 -0.295237
v 0.310430 0.502303 1.910844
v 0.000000 -0.000000 2.000000
v -0.310430 -0.502303 1.910844
v 1.374317 -0.502304 1.363431
v 1.175571 0.000000 1.618033
v 0.872014 0.502304 1.728376
v -1.721395 0.502302 0.885715
v -1.902116 -0.000000 0.618025
v -1.913252 -0.502299 0.295237
v -0.872014 -0.502304 1.728376
v -1.175571 0.000000 1.618034
v -1.374317 0.502304 1.363431
v -1.374317 0.502304 -1.363431
v -1.175571 -0.000000 -1.618033
v -0.872014 -0.502304 -1.728376
v -1.913252 -0.502299 -0.295237
v -1.902116 0.000000 -0.618025
v -1.721395 0.502302 -0.885715
v 0.872014 0.502304 -1.728376
v 1.175571 -0.000000 -1.618034
v 1.374317 -0.502304 -1.363431
v -0.310430 -0.502303 -1.910844
v 0.000000 0.000000 -2.000000
v 0.310430 0.502303 -1.910844
v 1.662101 1.004597 0.477707
v 1.376379 1.051472 0.999994
v 0.967943 1.004603 1.433129
v 0.059279 1.004604 1.728368
v -0.525738 1.051475 1.618023
v -1.063882 1.004603 1.363425
v -1.625458 1.004601 0.590475
v -1.701296 1.051472 0.000000
v -1.625458 1.004601 -0.590475
v -1.063882 1.004603 -1.363425
v -0.525738 1.051475 -1.618023
v 0.059279 1.004604 -1.728368
v 0.967943 1.004603 -1.433129
v 1.376379 1.051472 -0.999994
v 1.662101 1.004597 -0.477707
v 0.155213 1.935899 0.477705
v 0.324911 1.701309 0.999991
v 0.465643 1.315038 1.433126
v 1.506883 1.315030 0.000000
v 1.051460 1.701303 0.000000
v 0.502294 1.935898 0.000000
v -0.406362 1.935899 0.295236
v -0.850645 1.701308 0.618023
v -1.219093 1.315038 0.885713
v -0.406362 1.935899 -0.295236
v -0.850645 1.701308 -0.618023
v -1.219093 1.315038 -0.885713
v 0.155213 1.935899 -0.477705
v 0.324911 1.701309 -0.999991
v 0.465643 1.315038 -1.433126
v 0.723601 1.788858 -0.525726
v 1.276387 1.447220 -0.525728
v 0.894418 1.447223 -1.051456
v -0.276395 1.788860 -0.850639
v -0.105579 1.447225 -1.376370
v -0.723607 1.447224 -1.175557
v -0.894420 1.788858 0.000000
v -1.341633 1.447222 -0.324914
v -1.341633 1.447222 0.324914
v -0.276395 1.788860 0.850639
v -0.723607 1.447224 1.175557
v -0.105579 1.447225 1.376370
v 0.723601 1.788858 0.525726
v 0.894418 1.447223 1.051456
v 1.276387 1.447220 0.525728
v 1.723608 0.552792 -0.850644
v 1.618039 0.000000 -1.175564
v 1.341641 0.552795 -1.376378
v -0.276397 0.552794 -1.902110
v -0.618033 -0.000001 -1.902113
v -0.894430 0.552795 -1.701298
v -1.894426 0.552792 -0.324915
v -2.000000 0.000001 0.000001
v -1.894426 0.552793 0.324916
v -0.894432 0.552794 1.701297
v -0.618034 -0.000002 1.902113
v -0.276399 0.552794 1.902110
v 1.341641 0.552792 1.376379
v 1.618037 -0.000004 1.175566
v 1.723608 0.552789 0.850646
v 0.618034 -0.000000 -1.902113
v 0.894431 -0.552795 -1.701297
v 0.276398 -0.552795 -1.902110
v -1.618037 -0.000000 -1.175567
v -1.341638 -0.552795 -1.376381
v -1.723606 -0.552793 -0.850648
v -1.618037 0.000000 1.175567
v -1.723606 -0.552793 0.850648
v -1.341638 -0.552795 1.376381
v 0.618034 0.000000 1.902113
v 0.276398 -0.552795 1.902110
v 0.894431 -0.552795 1.701297
v 2.000000 0.000000 0.000000
v 1.894426 -0.552792 0.324915
v 1.894426 -0.552792 -0.324915
v 0.723607 -1.447223 -1.175558
v 0.276394 -1.788858 -0.850643
v 0.105578 -1.447222 -1.376373
v -0.894421 -1.447223 -1.051454
v -0.723602 -1.788858 -0.525725
v -1.276389 -1.447219 -0.525726
v -1.276389 -1.447219 0.525727
v -0.723603 -1.788857 0.525729
v -0.894421 -1.447221 1.051457
v 1.341634 -1.447221 -0.324914
v 1.341635 -1.447220 0.324915
v 0.894422 -1.788857 0.000001
v 0.105581 -1.447224 1.376371
v 0.276397 -1.788858 0.850641
v 0.723610 -1.447222 1.175558
vt 0.786236 0.535384
vt 0.791306 0.587557
vt 0.739515 0.553117
vt 0.133050 0.589276
vt 0.151162 0.635552
vt 0.092247 0.613612
vt 0.754623 0.493285
vt 0.815751 0.490747
vt 0.838422 0.549010
vt 0.091720 0.554913
vt 0.303745 0.140906
vt 0.340839 0.130524
vt 0.326378 0.187057
vt 0.085526 0.086456
vt 0.135321 0.090729
vt 0.091277 0.135493
vt 0.455088 0.384863
vt 0.509228 0.382721
vt 0.473456 0.425780
vt 0.492764 0.041903
vt 0.540122 0.020881
vt 0.532888 0.071342
vt 0.150310 0.540575
vt 0.275100 0.181361
vt 0.043414 0.116452
vt 0.413901 0.418220
vt 0.471614 0.086631
vt 0.214316 0.384864
vt 0.160176 0.382721
vt 0.197624 0.348550
vt 0.674218 0.904030
vt 0.677639 0.853126
vt 0.713639 0.900224
vt 0.536353 0.589276
vt 0.577157 0.613612
vt 0.518242 0.635552
vt 0.649621 0.201327
vt 0.686716 0.211709
vt 0.644375 0.252345
vt 0.431403 0.255777
vt 0.481198 0.251504
vt 0.460554 0.298211
vt 0.914781 0.822169
vt 0.929888 0.882001
vt 0.883168 0.864268
vt 0.945013 0.774498
vt 0.967531 0.836753
vt 0.521549 0.294642
vt 0.500091 0.337249
vt 0.976637 0.899746
vt 0.995185 0.787714
vt 0.588982 0.277816
vt 0.566263 0.329219
vt 0.628356 0.305244
vt 0.543306 0.239475
vt 0.603746 0.220926
vt 0.878097 0.916440
vt 0.927160 0.940501
vt 0.680292 0.267673
vt 0.868223 0.971838
vt 0.971440 0.957309
vt 0.389875 0.630661
vt 0.455416 0.638981
vt 0.429367 0.680338
vt 0.914443 0.995210
vt 0.494727 0.680338
vt 0.339576 0.612873
vt 0.363246 0.575293
vt 0.419610 0.585848
vt 0.482357 0.590413
vt 0.830982 0.877894
vt 0.818312 0.935981
vt 0.559745 0.664512
vt 0.769595 0.891148
vt 0.805594 0.990690
vt 0.753743 0.948268
vt 0.618055 0.634411
vt 0.745405 0.995210
vt 0.702084 0.949936
vt 0.095103 0.296613
vt 0.146888 0.300330
vt 0.137444 0.337249
vt 0.853653 0.819631
vt 0.791410 0.829440
vt 0.726841 0.841727
vt 0.817053 0.769185
vt 0.751791 0.777608
vt 0.781653 0.725434
vt 0.694235 0.792557
vt 0.722981 0.736599
vt 0.754959 0.696533
vt 0.883633 0.768114
vt 0.844014 0.716281
vt 0.911287 0.719074
vt 0.965037 0.733049
vt 0.806781 0.680874
vt 0.098012 0.391386
vt 0.135099 0.347229
vt 0.869654 0.675906
vt 0.929038 0.685950
vt 0.436318 0.328550
vt 0.403752 0.282314
vt 0.437154 0.206739
vt 0.451108 0.145769
vt 0.495797 0.193975
vt 0.514759 0.127884
vt 0.563231 0.177149
vt 0.579374 0.113763
vt 0.620976 0.160872
vt 0.672255 0.155175
vt 0.371843 0.465697
vt 0.390812 0.526138
vt 0.340427 0.517896
vt 0.431241 0.471290
vt 0.456354 0.534457
vt 0.496511 0.481521
vt 0.519094 0.540575
vt 0.577684 0.554913
vt 0.619158 0.511536
vt 0.625162 0.575768
vt 0.048774 0.176567
vt 0.005037 0.156603
vt 0.664529 0.528381
vt 0.067736 0.242657
vt 0.015061 0.221701
vt 0.041105 0.282315
vt 0.105231 0.196464
vt 0.125737 0.255601
vt 0.187011 0.270891
vt 0.194246 0.321352
vt 0.233497 0.228470
vt 0.244278 0.286709
vt 0.292749 0.237444
vt 0.248641 0.334101
vt 0.300711 0.292978
vt 0.674969 0.748448
vt 0.340839 0.240394
vt 0.297561 0.465697
vt 0.255503 0.418221
vt 0.304845 0.410442
vt 0.256539 0.370490
vt 0.195948 0.425780
vt 0.172893 0.481522
vt 0.133253 0.432223
vt 0.108141 0.495390
vt 0.068774 0.448002
vt 0.042996 0.411398
vt 0.050245 0.511536
vt 0.020178 0.468795
vt 0.389290 0.225781
vt 0.638626 0.104789
vt 0.590154 0.055524
vt 0.686716 0.101839
vt 0.646587 0.049255
vt 0.364559 0.410441
vt 0.594517 0.008132
vt 0.975168 0.463673
vt 0.946422 0.407715
vt 0.994434 0.419565
vt 0.412865 0.370489
vt 0.561263 0.495389
vt 0.536150 0.432222
vt 0.600630 0.448002
vt 0.649226 0.468795
vt 0.571392 0.391386
vt 0.626408 0.411398
vt 0.057875 0.059918
vt 0.168883 0.214349
vt 0.149921 0.148258
vt 0.217355 0.165084
vt 0.197429 0.102757
vt 0.257869 0.121307
vt 0.238162 0.471290
vt 0.328976 0.517896
vt 0.278592 0.526138
vt 0.213050 0.534458
vt 0.306157 0.575294
vt 0.249794 0.585848
vt 0.187046 0.590413
vt 0.350914 0.185629
vt 0.394651 0.165666
vt 0.044241 0.575768
vt 0.004874 0.528381
vt 0.360937 0.120532
vt 0.413613 0.099576
vt 0.051349 0.634411
vt 0.386982 0.059918
vt 0.440980 0.045620
vt 0.955764 0.571341
vt 0.991765 0.524242
vt 0.995185 0.575147
vt 0.899808 0.562265
vt 0.942562 0.512844
vt 0.877994 0.500556
vt 0.917613 0.448724
vt 0.852351 0.440302
vt 0.887751 0.396551
vt 0.914445 0.367650
vt 0.471780 0.348550
vt 0.825389 0.387397
vt 0.785771 0.439230
vt 0.862622 0.351990
vt 0.534306 0.347229
vt 0.758117 0.390190
vt 0.799749 0.347022
vt 0.740366 0.357066
vt 0.724391 0.445614
vt 0.704366 0.404165
vt 0.090442 0.013683
vt 0.114677 0.044021
vt 0.154214 0.004984
vt 0.175673 0.047591
vt 0.701872 0.507870
vt 0.674218 0.458830
vt 0.220386 0.013014
vt 0.243106 0.064417
vt 0.692766 0.570862
vt 0.282479 0.036988
vt 0.298499 0.089888
vt 0.483320 0.004984
vt 0.923998 0.666327
vt 0.915661 0.619385
vt 0.967320 0.621052
vt 0.109658 0.664512
vt 0.863809 0.661807
vt 0.851092 0.607098
vt 0.174676 0.680338
vt 0.801181 0.642955
vt 0.334416 0.074560
vt 0.742243 0.611618
vt 0.329827 0.612873
vt 0.279529 0.630662
vt 0.697963 0.628425
vt 0.240037 0.680338
vt 0.213987 0.638981
vt 0.754960 0.666327
vn 0.0000 -1.0000 0.0000
vn 0.2109 -0.9654 0.1533
vn -0.0806 -0.9654 0.2480
vn 0.7236 -0.4472 0.5257
vn 0.6042 -0.6650 0.4390
vn 0.8152 -0.5038 0.2857
vn -0.2608 -0.9654 0.0000
vn -0.0806 -0.9654 -0.2480
vn 0.2109 -0.9654 -0.1533
vn 0.8650 -0.2430 0.4390
vn -0.2764 -0.4472 0.8506
vn -0.0198 -0.5038 0.8636
vn -0.1502 -0.2430 0.9583
vn -0.8944 -0.4472 0.0000
vn -0.8274 -0.5038 0.2480
vn -0.9578 -0.2430 0.1533
vn -0.2764 -0.4472 -0.8506
vn -0.4915 -0.5038 -0.7103
vn -0.4417 -0.2430 -0.8636
vn 0.7236 -0.4472 -0.5257
vn 0.5236 -0.5038 -0.6870
vn 0.6848 -0.2430 -0.6870
vn 0.6848 -0.2430 0.6870
vn -0.4417 -0.2430 0.8636
vn -0.9578 -0.2430 -0.1533
vn -0.1502 -0.2430 -0.9583
vn 0.8650 -0.2430 -0.4390
vn 0.2764 0.4472 0.8506
vn 0.4915 0.5038 0.7103
vn 0.2308 0.6650 0.7103
vn -0.7236 0.4472 0.5257
vn -0.5236 0.5038 0.6870
vn -0.6042 0.6650 0.4390
vn -0.7236 0.4472 -0.5257
vn -0.8152 0.5038 -0.2857
vn -0.6042 0.6650 -0.4390
vn 0.2764 0.4472 -0.8506
vn 0.0198 0.5038 -0.8636
vn 0.2308 0.6650 -0.7103
vn 0.8944 0.4472 0.0000
vn 0.8274 0.5038 -0.2480
vn 0.7468 0.6650 0.0000
vn 0.2608 0.9654 0.0000
vn 0.0806 0.9654 -0.2480
vn 0.0000 1.0000 0.0000
vn 0.5257 0.8506 0.0000
vn 0.3682 0.8904 -0.2675
vn 0.6317 0.7275 -0.2675
vn 0.1625 0.8506 -0.5000
vn 0.4496 0.7275 -0.5181
vn 0.6882 0.5257 -0.5000
vn 0.4915 0.5038 -0.7103
vn -0.2109 0.9654 -0.1533
vn -0.1406 0.8904 -0.4328
vn -0.0592 0.7275 -0.6835
vn -0.4253 0.8506 -0.3090
vn -0.3538 0.7275 -0.5877
vn -0.2629 0.5257 -0.8090
vn -0.5236 0.5038 -0.6870
vn -0.2109 0.9654 0.1533
vn -0.4551 0.8904 0.0000
vn -0.6683 0.7275 -0.1549
vn -0.4253 0.8506 0.3090
vn -0.6683 0.7275 0.1549
vn -0.8506 0.5257 0.0000
vn -0.8152 0.5038 0.2857
vn 0.0806 0.9654 0.2480
vn -0.1406 0.8904 0.4328
vn -0.3538 0.7275 0.5877
vn 0.1625 0.8506 0.5000
vn -0.0592 0.7275 0.6835
vn -0.2629 0.5257 0.8090
vn 0.0198 0.5038 0.8636
vn 0.3682 0.8904 0.2675
vn 0.4496 0.7275 0.5181
vn 0.6317 0.7275 0.2675
vn 0.6882 0.5257 0.5000
vn 0.8274 0.5038 0.2480
vn 0.9578 0.2430 -0.1533
vn 0.9510 0.0000 -0.3090
vn 0.8593 0.2724 -0.4328
vn 0.8090 0.0089 -0.5878
vn 0.6772 0.2724 -0.6835
vn 0.5878 0.0000 -0.8090
vn 0.4417 0.2430 -0.8636
vn 0.1502 0.2430 -0.9583
vn 0.0000 0.0000 -1.0000
vn -0.1461 0.2724 -0.9510
vn -0.3090 0.0089 -0.9510
vn -0.4407 0.2724 -0.8553
vn -0.5878 0.0000 -0.8090
vn -0.6848 0.2430 -0.6870
vn -0.8650 0.2430 -0.4390
vn -0.9510 0.0000 -0.3090
vn -0.9496 0.2724 -0.1549
vn -0.9999 0.0089 0.0000
vn -0.9496 0.2724 0.1549
vn -0.9510 0.0000 0.3090
vn -0.8650 0.2430 0.4390
vn -0.6848 0.2430 0.6870
vn -0.5878 0.0000 0.8090
vn -0.4407 0.2724 0.8553
vn -0.3090 0.0089 0.9510
vn -0.1461 0.2724 0.9510
vn 0.0000 0.0000 1.0000
vn 0.1502 0.2430 0.9583
vn 0.4417 0.2430 0.8636
vn 0.5878 0.0000 0.8090
vn 0.6772 0.2724 0.6835
vn 0.8090 0.0089 0.5878
vn 0.8593 0.2724 0.4328
vn 0.9510 0.0000 0.3090
vn 0.9578 0.2430 0.1533
vn 0.3090 -0.0089 -0.9510
vn 0.4407 -0.2724 -0.8553
vn 0.1461 -0.2724 -0.9510
vn 0.2629 -0.5257 -0.8090
vn -0.0198 -0.5038 -0.8636
vn -0.8090 -0.0089 -0.5878
vn -0.6772 -0.2724 -0.6835
vn -0.8593 -0.2724 -0.4328
vn -0.6882 -0.5257 -0.5000
vn -0.8274 -0.5038 -0.2480
vn -0.8090 -0.0089 0.5878
vn -0.8593 -0.2724 0.4328
vn -0.6772 -0.2724 0.6835
vn -0.6882 -0.5257 0.5000
vn -0.4915 -0.5038 0.7103
vn 0.3090 -0.0089 0.9510
vn 0.1461 -0.2724 0.9510
vn 0.4407 -0.2724 0.8553
vn 0.2629 -0.5257 0.8090
vn 0.5236 -0.5038 0.6870
vn 0.9999 -0.0089 0.0000
vn 0.9496 -0.2724 0.1549
vn 0.9496 -0.2724 -0.1549
vn 0.8506 -0.5257 0.0000
vn 0.8152 -0.5038 -0.2857
vn 0.6042 -0.6650 -0.4390
vn 0.4253 -0.8506 -0.3090
vn 0.3538 -0.7275 -0.5878
vn 0.1406 -0.8904 -0.4328
vn 0.0592 -0.7275 -0.6835
vn -0.1625 -0.8506 -0.5000
vn -0.2308 -0.6650 -0.7103
vn -0.4496 -0.7275 -0.5181
vn -0.3682 -0.8904 -0.2675
vn -0.6317 -0.7275 -0.2675
vn -0.5257 -0.8506 0.0000
vn -0.7468 -0.6650 0.0000
vn -0.6317 -0.7275 0.2675
vn -0.3682 -0.8904 0.2675
vn -0.4496 -0.7275 0.5181
vn -0.1625 -0.8506 0.5000
vn -0.2308 -0.6650 0.7103
vn 0.6683 -0.7275 -0.1549
vn 0.6683 -0.7275 0.1549
vn 0.4551 -0.8904 0.0000
vn 0.4253 -0.8506 0.3090
vn 0.0592 -0.7275 0.6835
vn 0.1406 -0.8904 0.4328
vn 0.3538 -0.7275 0.5878
usemtl dirt-rock
s 1
f 1/1/1 16/2/2 15/3/3
f 2/4/4 18/5/5 24/6/6
f 1/1/1 15/3/3 30/7/7
f 1/1/1 30/7/7 36/8/8
f 1/1/1 36/8/8 25/9/9
f 2/4/4 24/6/6 45/10/10
f 3/11/11 21/12/12 51/13/13
f 4/14/14 33/15/15 57/16/16
f 5/17/17 39/18/18 63/19/19
f 6/20/20 42/21/21 69/22/22
f 2/4/4 45/10/10 52/23/23
f 3/11/11 51/13/13 58/24/24
f 4/14/14 57/16/16 64/25/25
f 5/17/17 63/19/19 70/26/26
f 6/20/20 69/22/22 46/27/27
f 7/28/28 75/29/29 90/30/30
f 8/31/31 78/32/32 96/33/33
f 9/34/34 81/35/35 99/36/36
f 10/37/37 84/38/38 102/39/39
f 11/40/40 87/41/41 91/42/42
f 93/43/43 100/44/44 12/45/45
f 92/46/46 103/47/47 93/43/43
f 91/42/42 104/48/48 92/49/46
f 93/43/43 103/47/47 100/44/44
f 103/47/47 101/50/49 100/44/44
f 92/46/46 104/51/48 103/47/47
f 104/48/48 105/52/50 103/53/47
f 103/53/47 105/52/50 101/54/49
f 105/52/50 102/39/39 101/54/49
f 91/42/42 87/41/41 104/48/48
f 87/41/41 86/55/51 104/48/48
f 104/48/48 86/55/51 105/52/50
f 86/55/51 85/56/52 105/52/50
f 105/52/50 85/56/52 102/39/39
f 85/56/52 10/37/37 102/39/39
f 100/44/44 97/57/53 12/45/45
f 101/50/49 106/58/54 100/44/44
f 102/39/39 107/59/55 101/54/49
f 100/44/44 106/58/54 97/57/53
f 106/58/54 98/60/56 97/57/53
f 101/50/49 107/61/55 106/58/54
f 107/62/55 108/63/57 106/64/54
f 106/58/54 108/65/57 98/60/56
f 108/63/57 99/36/36 98/66/56
f 102/67/39 84/68/38 107/62/55
f 84/68/38 83/69/58 107/62/55
f 107/62/55 83/69/58 108/63/57
f 83/69/58 82/70/59 108/63/57
f 108/63/57 82/70/59 99/36/36
f 82/70/59 9/34/34 99/36/36
f 97/57/53 94/71/60 12/45/45
f 98/60/56 109/72/61 97/57/53
f 99/36/36 110/73/62 98/66/56
f 97/57/53 109/72/61 94/71/60
f 109/72/61 95/74/63 94/71/60
f 98/60/56 110/75/62 109/72/61
f 110/75/62 111/76/64 109/72/61
f 109/72/61 111/76/64 95/74/63
f 111/76/64 96/33/33 95/74/63
f 99/36/36 81/35/35 110/73/62
f 81/35/35 80/77/65 110/73/62
f 110/75/62 80/78/65 111/76/64
f 80/78/65 79/79/66 111/76/64
f 111/76/64 79/79/66 96/33/33
f 79/80/66 8/81/31 96/82/33
f 94/71/60 88/83/67 12/45/45
f 95/74/63 112/84/68 94/71/60
f 96/33/33 113/85/69 95/74/63
f 94/71/60 112/84/68 88/83/67
f 112/84/68 89/86/70 88/83/67
f 95/74/63 113/85/69 112/84/68
f 113/85/69 114/87/71 112/84/68
f 112/84/68 114/87/71 89/86/70
f 114/87/71 90/88/30 89/86/70
f 96/33/33 78/32/32 113/85/69
f 78/32/32 77/89/72 113/85/69
f 113/85/69 77/89/72 114/87/71
f 77/89/72 76/90/73 114/87/71
f 114/87/71 76/90/73 90/88/30
f 76/90/73 7/91/28 90/88/30
f 88/83/67 93/43/43 12/45/45
f 89/86/70 115/92/74 88/83/67
f 90/88/30 116/93/75 89/86/70
f 88/83/67 115/92/74 93/43/43
f 115/92/74 92/46/46 93/43/43
f 89/86/70 116/93/75 115/92/74
f 116/93/75 117/94/76 115/92/74
f 115/92/74 117/94/76 92/46/46
f 117/94/76 91/95/42 92/46/46
f 90/88/30 75/96/29 116/93/75
f 75/29/29 74/97/77 116/98/75
f 116/93/75 74/99/77 117/94/76
f 74/99/77 73/100/78 117/94/76
f 117/101/76 73/102/78 91/42/42
f 73/102/78 11/40/40 91/42/42
f 48/103/79 87/41/41 11/40/40
f 47/104/80 118/105/81 48/103/79
f 46/27/27 119/106/82 47/104/80
f 48/103/79 118/105/81 87/41/41
f 118/105/81 86/55/51 87/41/41
f 47/104/80 119/106/82 118/105/81
f 119/106/82 120/107/83 118/105/81
f 118/105/81 120/107/83 86/55/51
f 120/107/83 85/56/52 86/55/51
f 46/27/27 69/22/22 119/106/82
f 69/22/22 68/108/84 119/106/82
f 119/106/82 68/108/84 120/107/83
f 68/108/84 67/109/85 120/107/83
f 120/107/83 67/109/85 85/56/52
f 67/109/85 10/37/37 85/56/52
f 72/110/86 84/38/38 10/37/37
f 71/111/87 121/112/88 72/113/86
f 70/26/26 122/114/89 71/111/87
f 72/113/86 121/112/88 84/68/38
f 121/112/88 83/69/58 84/68/38
f 71/111/87 122/114/89 121/112/88
f 122/114/89 123/115/90 121/112/88
f 121/112/88 123/115/90 83/69/58
f 123/115/90 82/70/59 83/69/58
f 70/26/26 63/19/19 122/114/89
f 63/19/19 62/116/91 122/114/89
f 122/114/89 62/116/91 123/115/90
f 62/116/91 61/117/92 123/115/90
f 123/115/90 61/117/92 82/70/59
f 61/117/92 9/34/34 82/70/59
f 66/118/93 81/35/35 9/34/34
f 65/119/94 124/120/95 66/118/93
f 64/25/25 125/121/96 65/122/94
f 66/118/93 124/120/95 81/35/35
f 124/120/95 80/77/65 81/35/35
f 65/119/94 125/123/96 124/120/95
f 125/121/96 126/124/97 124/125/95
f 124/125/95 126/124/97 80/126/65
f 126/124/97 79/80/66 80/126/65
f 64/25/25 57/16/16 125/121/96
f 57/16/16 56/127/98 125/121/96
f 125/121/96 56/127/98 126/124/97
f 56/127/98 55/128/99 126/124/97
f 126/124/97 55/128/99 79/80/66
f 55/128/99 8/81/31 79/80/66
f 60/129/100 78/130/32 8/81/31
f 59/131/101 127/132/102 60/129/100
f 58/24/24 128/133/103 59/131/101
f 60/129/100 127/132/102 78/130/32
f 127/132/102 77/134/72 78/130/32
f 59/131/101 128/133/103 127/132/102
f 128/133/103 129/135/104 127/132/102
f 127/132/102 129/135/104 77/134/72
f 129/136/104 76/90/73 77/89/72
f 58/24/24 51/13/13 128/133/103
f 51/13/13 50/137/105 128/133/103
f 128/133/103 50/137/105 129/135/104
f 50/138/105 49/139/106 129/140/104
f 129/140/104 49/139/106 76/141/73
f 49/139/106 7/28/28 76/141/73
f 54/142/107 75/29/29 7/28/28
f 53/143/108 130/144/109 54/142/107
f 52/23/23 131/145/110 53/143/108
f 54/142/107 130/144/109 75/29/29
f 130/144/109 74/97/77 75/29/29
f 53/143/108 131/145/110 130/144/109
f 131/145/110 132/146/111 130/144/109
f 130/144/109 132/146/111 74/97/77
f 132/146/111 73/147/78 74/97/77
f 52/23/23 45/10/10 131/145/110
f 45/10/10 44/148/112 131/145/110
f 131/145/110 44/148/112 132/146/111
f 44/148/112 43/149/113 132/146/111
f 132/146/111 43/149/113 73/147/78
f 43/150/113 11/40/40 73/102/78
f 67/109/85 72/110/86 10/37/37
f 68/108/84 133/151/114 67/109/85
f 69/22/22 134/152/115 68/108/84
f 67/109/85 133/151/114 72/110/86
f 133/151/114 71/153/87 72/110/86
f 68/108/84 134/152/115 133/151/114
f 134/152/115 135/154/116 133/151/114
f 133/151/114 135/154/116 71/153/87
f 135/155/116 70/26/26 71/111/87
f 69/22/22 42/21/21 134/152/115
f 42/21/21 41/156/117 134/152/115
f 134/152/115 41/156/117 135/154/116
f 41/157/117 40/158/118 135/159/116
f 135/155/116 40/160/118 70/26/26
f 40/160/118 5/17/17 70/26/26
f 61/117/92 66/118/93 9/34/34
f 62/116/91 136/161/119 61/117/92
f 63/19/19 137/162/120 62/116/91
f 61/117/92 136/161/119 66/118/93
f 136/161/119 65/119/94 66/118/93
f 62/116/91 137/162/120 136/161/119
f 137/162/120 138/163/121 136/161/119
f 136/161/119 138/163/121 65/119/94
f 138/163/121 64/164/25 65/119/94
f 63/19/19 39/18/18 137/162/120
f 39/18/18 38/165/122 137/162/120
f 137/162/120 38/165/122 138/163/121
f 38/165/122 37/166/123 138/163/121
f 138/163/121 37/166/123 64/164/25
f 37/167/123 4/14/14 64/25/25
f 55/128/99 60/129/100 8/81/31
f 56/127/98 139/168/124 55/128/99
f 57/16/16 140/169/125 56/127/98
f 55/128/99 139/168/124 60/129/100
f 139/168/124 59/131/101 60/129/100
f 56/127/98 140/169/125 139/168/124
f 140/169/125 141/170/126 139/168/124
f 139/168/124 141/170/126 59/131/101
f 141/170/126 58/24/24 59/131/101
f 57/16/16 33/15/15 140/169/125
f 33/15/15 32/171/127 140/169/125
f 140/169/125 32/171/127 141/170/126
f 32/171/127 31/172/128 141/170/126
f 141/170/126 31/172/128 58/24/24
f 31/172/128 3/11/11 58/24/24
f 49/139/106 54/142/107 7/28/28
f 50/138/105 142/173/129 49/139/106
f 51/174/13 143/175/130 50/138/105
f 49/139/106 142/173/129 54/142/107
f 142/173/129 53/143/108 54/142/107
f 50/138/105 143/175/130 142/173/129
f 143/175/130 144/176/131 142/173/129
f 142/173/129 144/176/131 53/143/108
f 144/176/131 52/23/23 53/143/108
f 51/174/13 21/177/12 143/175/130
f 21/177/12 20/178/132 143/175/130
f 143/175/130 20/178/132 144/176/131
f 20/178/132 19/179/133 144/176/131
f 144/176/131 19/179/133 52/23/23
f 19/179/133 2/4/4 52/23/23
f 43/150/113 48/103/79 11/40/40
f 44/180/112 145/181/134 43/150/113
f 45/10/10 146/182/135 44/148/112
f 43/150/113 145/181/134 48/103/79
f 145/181/134 47/104/80 48/103/79
f 44/148/112 146/182/135 145/183/134
f 146/184/135 147/185/136 145/181/134
f 145/181/134 147/185/136 47/104/80
f 147/185/136 46/27/27 47/104/80
f 45/10/10 24/6/6 146/182/135
f 24/6/6 23/186/137 146/182/135
f 146/184/135 23/187/137 147/185/136
f 23/187/137 22/188/138 147/185/136
f 147/185/136 22/188/138 46/27/27
f 22/188/138 6/20/20 46/27/27
f 27/189/139 42/190/21 6/191/20
f 26/192/140 148/193/141 27/189/139
f 25/9/9 149/194/142 26/192/140
f 27/189/139 148/193/141 42/190/21
f 148/193/141 41/157/117 42/190/21
f 26/192/140 149/194/142 148/193/141
f 149/194/142 150/195/143 148/193/141
f 148/193/141 150/195/143 41/157/117
f 150/195/143 40/158/118 41/157/117
f 25/9/9 36/8/8 149/194/142
f 36/8/8 35/196/144 149/194/142
f 149/194/142 35/196/144 150/195/143
f 35/196/144 34/197/145 150/195/143
f 150/195/143 34/197/145 40/158/118
f 34/197/145 5/198/17 40/158/118
f 34/199/145 39/18/18 5/17/17
f 35/196/144 151/200/146 34/197/145
f 36/8/8 152/201/147 35/196/144
f 34/197/145 151/200/146 39/202/18
f 151/203/146 38/165/122 39/18/18
f 35/196/144 152/201/147 151/200/146
f 152/201/147 153/204/148 151/200/146
f 151/200/146 153/204/148 38/205/122
f 153/204/148 37/206/123 38/205/122
f 36/8/8 30/7/7 152/201/147
f 30/7/7 29/207/149 152/201/147
f 152/201/147 29/207/149 153/204/148
f 29/207/149 28/208/150 153/204/148
f 153/209/148 28/210/150 37/167/123
f 28/210/150 4/14/14 37/167/123
f 28/210/150 33/15/15 4/14/14
f 29/211/149 154/212/151 28/210/150
f 30/7/7 155/213/152 29/207/149
f 28/210/150 154/212/151 33/15/15
f 154/212/151 32/171/127 33/15/15
f 29/207/149 155/213/152 154/214/151
f 155/215/152 156/216/153 154/212/151
f 154/212/151 156/216/153 32/171/127
f 156/216/153 31/172/128 32/171/127
f 30/7/7 15/3/3 155/213/152
f 15/3/3 14/217/154 155/213/152
f 155/215/152 14/218/154 156/216/153
f 14/218/154 13/219/155 156/216/153
f 156/216/153 13/219/155 31/172/128
f 13/219/155 3/11/11 31/172/128
f 22/188/138 27/220/139 6/20/20
f 23/221/137 157/222/156 22/223/138
f 24/6/6 158/224/157 23/186/137
f 22/223/138 157/222/156 27/189/139
f 157/222/156 26/192/140 27/189/139
f 23/221/137 158/225/157 157/222/156
f 158/225/157 159/226/158 157/222/156
f 157/222/156 159/226/158 26/192/140
f 159/226/158 25/9/9 26/192/140
f 24/6/6 18/5/5 158/224/157
f 18/5/5 17/227/159 158/224/157
f 158/225/157 17/228/159 159/226/158
f 17/228/159 16/2/2 159/226/158
f 159/226/158 16/2/2 25/9/9
f 16/2/2 1/1/1 25/9/9
f 13/219/155 21/12/12 3/11/11
f 14/218/154 160/229/160 13/219/155
f 15/3/3 161/230/161 14/217/154
f 13/231/155 160/232/160 21/177/12
f 160/232/160 20/178/132 21/177/12
f 14/217/154 161/230/161 160/233/160
f 161/234/161 162/235/162 160/232/160
f 160/232/160 162/235/162 20/178/132
f 162/235/162 19/179/133 20/178/132
f 15/3/3 16/2/2 161/230/161
f 16/2/2 17/228/159 161/230/161
f 161/230/161 17/228/159 162/236/162
f 17/227/159 18/5/5 162/235/162
f 162/235/162 18/5/5 19/179/133
f 18/5/5 2/4/4 19/179/133
