# Blender v2.82 (sub 7) OBJ File: 'desert_rock.blend'
# www.blender.org
mtllib small_desert_rock3.mtl
o Cube
v -0.507717 -0.066593 0.560206
v -0.759607 -0.057453 0.363181
v 0.102755 1.403226 0.130746
v 0.162440 1.400770 0.214217
v -0.529220 0.362112 0.544798
v -0.727605 0.368816 0.387620
v -0.412040 0.946453 0.178190
v -0.236571 0.953484 0.318024
v 0.716725 -0.013819 0.383368
v 0.439575 -0.039169 0.579857
v 0.439418 1.404355 0.276239
v 0.520078 1.410802 0.194327
v 0.463036 0.943145 0.506645
v 0.640692 0.945382 0.409515
v 0.699249 0.403085 0.449550
v 0.475985 0.383111 0.609304
v 0.476619 0.053060 -0.483387
v 0.734747 0.044013 -0.285213
v 0.550085 1.422979 -0.116815
v 0.486733 1.425824 -0.203764
v 0.694050 0.977615 -0.201214
v 0.513980 0.971042 -0.346400
v 0.522877 0.469053 -0.442042
v 0.726555 0.462095 -0.282404
v -0.742211 0.001526 -0.318999
v -0.473381 0.025947 -0.507636
v 0.146296 1.412390 -0.221112
v 0.076524 1.406785 -0.141851
v -0.351190 0.919740 -0.367152
v -0.513230 0.919126 -0.273386
v -0.737643 0.413481 -0.316120
v -0.526338 0.432008 -0.467886
v 0.143965 1.439527 0.100249
v 0.192133 1.437545 0.167614
v 0.415666 1.440437 0.217669
v 0.480763 1.445641 0.151562
v 0.504979 1.455468 -0.099543
v 0.453851 1.457765 -0.169714
v 0.179104 1.446922 -0.183715
v 0.122795 1.442399 -0.119748
vt 0.033222 0.723068
vt 0.033703 0.634179
vt 0.143454 0.625975
vt 0.186155 0.720945
vt 0.711999 0.600936
vt 0.642365 0.605903
vt 0.639991 0.568174
vt 0.708639 0.526333
vt 0.039589 0.558022
vt 0.082787 0.556216
vt 0.294736 0.557484
vt 0.305966 0.569753
vt 0.299967 0.573905
vt 0.290904 0.564003
vt 0.791544 0.604771
vt 0.790843 0.512007
vt 0.905458 0.577655
vt 0.926613 0.495874
vt 0.967398 0.499737
vt 0.971651 0.590528
vt 0.042400 0.787780
vt 0.185577 0.787780
vt 0.855123 0.601312
vt 0.855123 0.515946
vt 0.790640 0.738011
vt 0.716367 0.713299
vt 0.713747 0.635406
vt 0.791277 0.643274
vt 0.861961 0.671080
vt 0.968646 0.674230
vt 0.093774 0.553932
vt 0.173295 0.623570
vt 0.219767 0.715972
vt 0.228188 0.781420
vt 0.859144 0.975745
vt 0.829340 0.934497
vt 0.829394 0.785981
vt 0.858631 0.744864
vt 0.960678 0.745016
vt 0.991712 0.787533
vt 0.992349 0.935607
vt 0.963264 0.975745
vt 0.005297 0.781073
vt 0.003372 0.717706
vt 0.009319 0.632625
vt 0.029397 0.555722
vt 0.860413 0.737773
vt 0.964475 0.737773
vt 0.854696 0.649574
vt 0.642662 0.622710
vt 0.642787 0.654598
vt 0.995469 0.668503
vt 0.997937 0.730293
vt 0.298857 0.622488
vt 0.305966 0.701654
vt 0.287300 0.723798
vt 0.284986 0.630873
vt 0.988652 0.587913
vt 0.853154 0.735511
vt 0.294230 0.616464
vt 0.283035 0.623231
vt 0.250665 0.613561
vt 0.241939 0.604196
vt 0.240806 0.568426
vt 0.252572 0.560373
vt 0.244877 0.618891
vt 0.234064 0.607287
vt 0.247239 0.552986
vt 0.232660 0.562964
vn 0.2541 0.0841 0.9635
vn 0.1810 0.3413 0.9224
vn -0.3848 0.4979 0.7772
vn -0.3823 0.2143 0.8988
vn 0.9064 0.2276 -0.3557
vn 0.7773 0.5809 -0.2413
vn 0.6919 0.6220 0.3665
vn 0.8186 0.2583 0.5130
vn 0.1560 0.6443 0.7486
vn -0.3392 0.6636 0.6668
vn 0.3584 0.5602 -0.7468
vn 0.1334 0.9305 -0.3411
vn 0.3365 0.9401 -0.0548
vn 0.9001 0.0804 -0.4281
vn 0.8590 0.0397 0.5105
vn -0.7026 0.6206 0.3482
vn -0.5779 0.7567 0.3056
vn -0.5746 0.7845 -0.2329
vn -0.7395 0.5787 -0.3438
vn 0.2225 -0.6920 0.6867
vn -0.2460 -0.6813 0.6894
vn 0.7265 -0.5810 -0.3670
vn 0.7111 -0.6362 0.2993
vn -0.3217 0.1682 -0.9318
vn -0.2856 0.4246 -0.8592
vn 0.3442 0.2452 -0.9063
vn 0.3423 0.1205 -0.9318
vn -0.8520 0.2636 0.4523
vn -0.8768 0.2311 -0.4216
vn -0.7143 -0.6347 0.2949
vn -0.6929 -0.6004 -0.3992
vn -0.1898 -0.5897 -0.7849
vn 0.2529 -0.5826 -0.7724
vn -0.2185 0.6175 -0.7556
vn -0.1447 0.9235 -0.3553
vn -0.3747 0.9243 -0.0717
vn -0.3506 0.9271 0.1323
vn -0.2032 0.9306 0.3044
vn 0.0511 0.9383 0.3419
vn 0.3011 0.9418 0.1495
usemtl horzrock
s 1
f 16/1/1 13/2/2 8/3/3 5/4/4
f 21/5/5 19/6/6 12/7/7 14/8/8
f 13/2/2 11/9/9 4/10/10 8/3/3
f 19/11/6 20/12/11 38/13/12 37/14/13
f 24/15/14 21/5/5 14/8/8 15/16/15
f 7/17/16 3/18/17 28/19/18 30/20/19
f 10/21/20 16/1/1 5/4/4 1/22/21
f 18/23/22 24/15/14 15/16/15 9/24/23
f 32/25/24 29/26/25 22/27/26 23/28/27
f 6/29/28 7/17/16 30/20/19 31/30/29
f 8/3/3 4/10/10 3/31/17 7/32/16
f 1/22/21 5/4/4 6/33/28 2/34/30
f 5/4/4 8/3/3 7/32/16 6/33/28
f 25/35/31 26/36/32 17/37/33 18/38/22 9/39/23 10/40/20 1/41/21 2/42/30
f 16/1/1 10/21/20 9/43/23 15/44/15
f 11/9/9 13/2/2 14/45/8 12/46/7
f 13/2/2 16/1/1 15/44/15 14/45/8
f 2/47/30 6/29/28 31/30/29 25/48/31
f 24/15/14 18/23/22 17/49/33 23/28/27
f 19/6/6 21/5/5 22/27/26 20/50/11
f 21/5/5 24/15/14 23/28/27 22/27/26
f 29/26/25 27/51/34 20/50/11 22/27/26
f 32/52/24 26/53/32 25/48/31 31/30/29
f 27/54/34 29/55/25 30/56/19 28/57/18
f 29/58/25 32/52/24 31/30/29 30/20/19
f 26/59/32 32/25/24 23/28/27 17/49/33
f 37/14/13 38/13/12 39/60/35 40/61/36 33/62/37 34/63/38 35/64/39 36/65/40
f 3/66/17 4/67/10 34/63/38 33/62/37
f 28/57/18 3/66/17 33/62/37 40/61/36
f 20/12/11 27/54/34 39/60/35 38/13/12
f 27/54/34 28/57/18 40/61/36 39/60/35
f 12/68/7 19/11/6 37/14/13 36/65/40
f 11/69/9 12/68/7 36/65/40 35/64/39
f 4/67/10 11/69/9 35/64/39 34/63/38
